<svg width="220" height="44" viewBox="0 0 220 44" fill="none" xmlns="http://www.w3.org/2000/svg">
  <!-- Logomark group -->
  <g transform="translate(2,2)">
    <circle cx="20" cy="20" r="16" fill="#F4F4F6" stroke="#E2E8F0" stroke-width="1.5" />
    <path d="M14 26C14 22 14 18 14 14" stroke="#3F3182" stroke-width="2.4" stroke-linecap="round" />
    <path d="M26 26C26 22 26 18 26 14" stroke="#3F3182" stroke-width="2.4" stroke-linecap="round" />
    <path d="M20 24C19 21.5 18.5 19 18.5 16.5" stroke="#3F3182" stroke-width="2.4" stroke-linecap="round" />
    <path d="M20 24C21 21.5 21.5 19 21.5 16.5" stroke="#3F3182" stroke-width="2.4" stroke-linecap="round" opacity="0.45" />
    <path d="M20 24C21 26.5 21.5 29 21.5 31" stroke="#3F3182" stroke-width="2.4" stroke-linecap="round" />
    <path d="M20 24C19 26.5 18.5 29 18.5 31" stroke="#3F3182" stroke-width="2.4" stroke-linecap="round" opacity="0.45" />
    <circle cx="27.5" cy="11.5" r="3" fill="#E94B8A" />
    <circle cx="27.5" cy="11.5" r="4.5" stroke="#E94B8A" stroke-width="1" opacity="0.25" />
  </g>

  <!-- Wordmark group -->
  <g transform="translate(52, 13)">
    <text x="0" y="16" font-family="system-ui, -apple-system, BlinkMacSystemFont, 'Inter', sans-serif" font-size="17" font-weight="600" fill="#0F172A" letter-spacing="0.03em">Integrate</text>
    <text x="96" y="16" font-family="system-ui, -apple-system, BlinkMacSystemFont, 'Inter', sans-serif" font-size="17" font-weight="700" fill="#3F3182" letter-spacing="0.03em">Wise</text>
  </g>
</svg>
