<svg xmlns="http://www.w3.org/2000/svg" viewBox="0 0 100 100" width="100" height="100">
  <path fill="#00A1E0" d="M42.9 28.9c2.9-4.4 8-7.3 13.6-7.3 6.2 0 11.6 3.4 14.4 8.4 2.3-0.9 4.8-1.4 7.4-1.4 11.4 0 20.6 9.2 20.6 20.6 0 11.4-9.2 20.6-20.6 20.6 -1.1 0-2.1-0.1-3.2-0.2 -2.3 4.1-6.7 6.9-11.8 6.9 -3.1 0-6-1-8.3-2.8 -2.5 5.4-8 9.2-14.3 9.2 -8.7 0-15.8-7.1-15.8-15.8 0-1.3 0.2-2.6 0.5-3.8C18.8 60.5 14 54.6 14 47.5c0-8.7 7.1-15.8 15.8-15.8 3.1 0 6 0.9 8.4 2.5C39.9 31.5 41.3 30.1 42.9 28.9z"/>
</svg>
