<svg xmlns="http://www.w3.org/2000/svg" viewBox="0 0 192 192" width="100" height="100">
  <path fill="#4285F4" d="M96 0c53 0 96 43 96 96s-43 96-96 96S0 149 0 96 43 0 96 0z"/>
  <path fill="#34A853" d="M96 88v28h35.4c-2.8 10.8-11.2 20-23.4 23.6l27 21c16-14.8 25-36.6 25-62.6 0-6-0.6-11.8-1.6-17.4H96z"/>
  <path fill="#FBBC04" d="M96 192c-25 0-47-11.2-62-28.8l27-21c7.4 5 16.8 8 35 8 17.6 0 32.6-10 40-24.6l27 21c-13.4 26.6-40.4 45.4-67 45.4z"/>
  <path fill="#EA4335" d="M38.8 115.2c-3-9-4.8-18.6-4.8-28.2S35.8 67.8 38.8 58.8l-27-21C4.4 54 0 74.4 0 96s4.4 42 11.8 58.2l27-21z"/>
  <path fill="#FFF" d="M96 48c13.6 0 25.8 4.8 35.4 14.2l26.6-26.6C142 20 120.4 10 96 10c-26.6 0-53.6 18.8-67 45.4l27 21C63.4 61.8 78.4 48 96 48z"/>
</svg>
