<svg xmlns="http://www.w3.org/2000/svg" viewBox="0 0 100 100" width="100" height="100">
  <circle cx="50" cy="50" r="50" fill="#FF7A59"/>
  <path fill="#FFF" d="M62.8 38.4V28.2c2.4-1.2 4-3.6 4-6.4 0-4-3.2-7.2-7.2-7.2s-7.2 3.2-7.2 7.2c0 2.8 1.6 5.2 4 6.4v10.2c-7.2 1.2-12.8 7.2-12.8 14.8 0 8.4 6.8 15.2 15.2 15.2s15.2-6.8 15.2-15.2c0-7.6-5.6-13.6-12.8-14.8zM59.6 17c1.6 0 2.8 1.2 2.8 2.8s-1.2 2.8-2.8 2.8-2.8-1.2-2.8-2.8 1.2-2.8 2.8-2.8zm0 42.8c-5.6 0-10-4.4-10-10s4.4-10 10-10 10 4.4 10 10-4.4 10-10 10z"/>
  <path fill="#FFF" d="M35.2 46.8h-9.6c-1.2 0-2-0.8-2-2V36c0-1.2 0.8-2 2-2h9.6c1.2 0 2 0.8 2 2v8.8c0 1.2-0.8 2-2 2zM74.4 46.8H84c1.2 0 2-0.8 2-2V36c0-1.2-0.8-2-2-2h-9.6c-1.2 0-2 0.8-2 2v8.8c0 1.2 0.8 2 2 2z"/>
</svg>
